<svg width="131" height="35" viewBox="0 0 131 35" fill="none" xmlns="http://www.w3.org/2000/svg">
<path d="M12.1791 34.9572C13.803 34.9572 15.4268 34.6136 16.9225 34.0124C18.3755 33.3682 19.7002 32.5093 20.8113 31.3927C21.9223 30.2332 22.777 28.9448 23.418 27.4847C24.059 25.9816 24.3582 24.3496 24.3582 22.7177C24.3582 21.0428 24.059 19.4539 23.418 17.9508C22.777 16.4906 21.9223 15.1593 20.8113 14.0427C19.6575 12.9262 18.3755 12.0673 16.9225 11.4231C15.4268 10.7789 13.803 10.4783 12.1791 10.4783C10.5552 10.4783 8.93133 10.7789 7.43566 11.4231C5.98272 12.0673 4.70071 12.9262 3.5469 14.0427C2.43583 15.2023 1.58116 16.4906 0.940148 17.9508C0.341878 19.4539 0 21.0428 0 22.7177C0 24.3496 0.341878 25.9816 0.940148 27.4847C1.58116 28.9448 2.43583 30.2332 3.5469 31.3927C4.70071 32.5093 5.98272 33.3682 7.43566 34.0124C8.93133 34.6136 10.5552 34.9572 12.1791 34.9572V34.9572ZM12.1791 16.9201C15.3414 16.9201 17.9481 19.5398 17.9481 22.7177C17.9481 25.8957 15.3414 28.5154 12.1791 28.5154C9.01679 28.5154 6.41003 25.8957 6.41003 22.7177C6.41003 19.5398 9.01679 16.9201 12.1791 16.9201V16.9201Z" fill="#7076E0"/>
<path d="M32.6172 34.6141H39.07V0L32.6172 2.14728V34.6141Z" fill="#7E82DA"/>
<path d="M48.6577 34.5863H55.1105V9.80688L48.6577 11.9541V34.5863Z" fill="#8C8ED5"/>
<path d="M71.149 34.6674H76.4907L86.1913 10.7468H79.2257L73.8413 24.6611L68.4995 10.7468H61.4912L71.149 34.6674Z" fill="#9292C7"/>
<path d="M92.5039 34.5863H98.9567V9.80688L92.5039 11.9541V34.5863Z" fill="#797999"/>
<path d="M124.59 10.4783L124.633 11.8525C122.923 10.9936 121.043 10.5212 119.12 10.5212C117.496 10.5212 115.872 10.8218 114.377 11.466C112.924 12.1102 111.642 12.9691 110.488 14.0857C109.377 15.2022 108.522 16.5336 107.881 17.9937C107.283 19.4968 106.941 21.1287 106.941 22.7606C106.941 24.3925 107.283 26.0245 107.881 27.5275C108.522 28.9877 109.377 30.276 110.488 31.4356C111.642 32.5521 112.924 33.411 114.377 34.0552C115.872 34.6565 117.496 35 119.12 35C121.043 35 122.923 34.5276 124.633 33.6687L124.59 34.6565H131V10.4783H124.59ZM122.026 27.7423C121.171 28.2576 120.146 28.5582 119.12 28.5582C115.958 28.5582 113.351 25.9386 113.351 22.7606C113.351 19.5827 115.958 16.963 119.12 16.963C120.231 16.963 121.342 17.2636 122.24 17.9078C123.18 18.4661 123.906 19.325 124.334 20.3127C124.718 21.0857 124.889 21.9017 124.889 22.7606C124.889 23.7913 124.633 24.779 124.12 25.6809C123.607 26.5398 122.923 27.2699 122.026 27.7423Z" fill="#60606C"/>
</svg>
